<?xml version="1.0" encoding="UTF-8"?>
<svg xmlns="http://www.w3.org/2000/svg" xmlns:xlink="http://www.w3.org/1999/xlink" width="402.774984" height="244.474996" viewBox="0 0 402.774984 244.474996" version="1.1">
<defs>
<clipPath id="clip1">
  <path d="M 94 9.601562 L 97 9.601562 L 97 194.398438 L 94 194.398438 Z M 94 9.601562 "/>
</clipPath>
<clipPath id="clip2">
  <path d="M 138 9.601562 L 140 9.601562 L 140 194.398438 L 138 194.398438 Z M 138 9.601562 "/>
</clipPath>
<clipPath id="clip3">
  <path d="M 181 9.601562 L 184 9.601562 L 184 194.398438 L 181 194.398438 Z M 181 9.601562 "/>
</clipPath>
<clipPath id="clip4">
  <path d="M 225 9.601562 L 227 9.601562 L 227 194.398438 L 225 194.398438 Z M 225 9.601562 "/>
</clipPath>
<clipPath id="clip5">
  <path d="M 268 9.601562 L 271 9.601562 L 271 194.398438 L 268 194.398438 Z M 268 9.601562 "/>
</clipPath>
<clipPath id="clip6">
  <path d="M 312 9.601562 L 314 9.601562 L 314 194.398438 L 312 194.398438 Z M 312 9.601562 "/>
</clipPath>
<clipPath id="clip7">
  <path d="M 355 9.601562 L 358 9.601562 L 358 194.398438 L 355 194.398438 Z M 355 9.601562 "/>
</clipPath>
<clipPath id="clip8">
  <path d="M 58.375 185 L 393.175781 185 L 393.175781 187 L 58.375 187 Z M 58.375 185 "/>
</clipPath>
<clipPath id="clip9">
  <path d="M 58.375 143 L 393.175781 143 L 393.175781 145 L 58.375 145 Z M 58.375 143 "/>
</clipPath>
<clipPath id="clip10">
  <path d="M 58.375 101 L 393.175781 101 L 393.175781 103 L 58.375 103 Z M 58.375 101 "/>
</clipPath>
<clipPath id="clip11">
  <path d="M 58.375 58 L 393.175781 58 L 393.175781 61 L 58.375 61 Z M 58.375 58 "/>
</clipPath>
<clipPath id="clip12">
  <path d="M 58.375 16 L 393.175781 16 L 393.175781 19 L 58.375 19 Z M 58.375 16 "/>
</clipPath>
<filter id="alpha" filterUnits="objectBoundingBox" x="0%" y="0%" width="100%" height="100%">
  <feColorMatrix type="matrix" in="SourceGraphic" values="0 0 0 0 1 0 0 0 0 1 0 0 0 0 1 0 0 0 1 0"/>
</filter>
<mask id="mask0">
  <g filter="url(#alpha)">
<rect x="0" y="0" width="402.774984" height="244.474996" style="fill:rgb(0%,0%,0%);fill-opacity:0.8;stroke:none;"/>
  </g>
</mask>
<clipPath id="clip13">
  <rect x="0" y="0" width="403" height="245"/>
</clipPath>
<g id="surface5" clip-path="url(#clip13)">
<path style="fill-rule:nonzero;fill:rgb(100%,100%,100%);fill-opacity:1;stroke-width:1;stroke-linecap:butt;stroke-linejoin:miter;stroke:rgb(80.000001%,80.000001%,80.000001%);stroke-opacity:1;stroke-miterlimit:4;" d="M 50.780273 59.235352 L 152.056641 59.235352 C 153.389648 59.235352 154.057617 58.567383 154.057617 57.234375 L 154.057617 14.200195 C 154.057617 12.867187 153.389648 12.199219 152.056641 12.199219 L 50.780273 12.199219 C 49.447266 12.199219 48.782227 12.867187 48.782227 14.200195 L 48.782227 57.234375 C 48.782227 58.567383 49.447266 59.235352 50.780273 59.235352 Z M 50.780273 59.235352 " transform="matrix(1.333333,0,0,1.333333,0,0.000000000000014211)"/>
</g>
</defs>
<g id="surface1">
<path style=" stroke:none;fill-rule:nonzero;fill:rgb(100%,100%,100%);fill-opacity:1;" d="M 0 244.476562 L 402.773438 244.476562 L 402.773438 0 L 0 0 Z M 0 244.476562 "/>
<path style=" stroke:none;fill-rule:nonzero;fill:rgb(100%,100%,100%);fill-opacity:1;" d="M 58.375 194.398438 L 393.175781 194.398438 L 393.175781 9.601562 L 58.375 9.601562 Z M 58.375 194.398438 "/>
<g clip-path="url(#clip1)" clip-rule="nonzero">
<path style="fill:none;stroke-width:0.8;stroke-linecap:square;stroke-linejoin:round;stroke:rgb(69.01961%,69.01961%,69.01961%);stroke-opacity:1;stroke-miterlimit:4;" d="M 71.510742 145.798828 L 71.510742 7.201172 " transform="matrix(1.333333,0,0,1.333333,0,0.000000000000014211)"/>
</g>
<path style="fill:none;stroke-width:0.8;stroke-linecap:butt;stroke-linejoin:round;stroke:rgb(0%,0%,0%);stroke-opacity:1;stroke-miterlimit:4;" d="M -0.000991821 -0.00117493 L -0.000991821 3.499802 " transform="matrix(1.333333,0,0,1.333333,95.348979,194.400004)"/>
<path style=" stroke:none;fill-rule:nonzero;fill:rgb(0%,0%,0%);fill-opacity:1;" d="M 86.933594 209.132812 L 95.277344 209.132812 L 95.277344 210.238281 L 86.933594 210.238281 Z M 86.933594 209.132812 "/>
<path style=" stroke:none;fill-rule:nonzero;fill:rgb(0%,0%,0%);fill-opacity:1;" d="M 101.09375 208.480469 C 100.503906 208.480469 100.035156 208.683594 99.691406 209.085938 C 99.347656 209.492188 99.175781 210.042969 99.175781 210.746094 C 99.175781 211.445312 99.347656 211.996094 99.691406 212.402344 C 100.035156 212.808594 100.503906 213.011719 101.09375 213.011719 C 101.683594 213.011719 102.152344 212.808594 102.496094 212.402344 C 102.839844 211.996094 103.011719 211.445312 103.011719 210.746094 C 103.011719 210.042969 102.839844 209.492188 102.496094 209.085938 C 102.152344 208.683594 101.683594 208.480469 101.09375 208.480469 Z M 103.707031 204.359375 L 103.707031 205.554688 C 103.375 205.402344 103.042969 205.28125 102.707031 205.199219 C 102.367188 205.117188 102.035156 205.074219 101.707031 205.074219 C 100.835938 205.074219 100.175781 205.367188 99.714844 205.953125 C 99.257812 206.539062 98.996094 207.425781 98.933594 208.609375 C 99.1875 208.234375 99.507812 207.941406 99.894531 207.742188 C 100.28125 207.539062 100.707031 207.441406 101.171875 207.441406 C 102.148438 207.441406 102.917969 207.734375 103.488281 208.328125 C 104.054688 208.921875 104.335938 209.726562 104.335938 210.746094 C 104.335938 211.746094 104.042969 212.546875 103.449219 213.148438 C 102.859375 213.753906 102.074219 214.054688 101.09375 214.054688 C 99.96875 214.054688 99.109375 213.625 98.515625 212.761719 C 97.921875 211.898438 97.625 210.652344 97.625 209.015625 C 97.625 207.476562 97.988281 206.253906 98.71875 205.339844 C 99.445312 204.425781 100.425781 203.96875 101.652344 203.96875 C 101.984375 203.96875 102.316406 204 102.652344 204.066406 C 102.988281 204.132812 103.339844 204.230469 103.707031 204.359375 Z M 103.707031 204.359375 "/>
<g clip-path="url(#clip2)" clip-rule="nonzero">
<path style="fill:none;stroke-width:0.8;stroke-linecap:square;stroke-linejoin:round;stroke:rgb(69.01961%,69.01961%,69.01961%);stroke-opacity:1;stroke-miterlimit:4;" d="M 104.144531 145.798828 L 104.144531 7.201172 " transform="matrix(1.333333,0,0,1.333333,0,0.000000000000014211)"/>
</g>
<path style="fill:none;stroke-width:0.8;stroke-linecap:butt;stroke-linejoin:round;stroke:rgb(0%,0%,0%);stroke-opacity:1;stroke-miterlimit:4;" d="M -0.000900269 -0.00117493 L -0.000900269 3.499802 " transform="matrix(1.333333,0,0,1.333333,138.860575,194.400004)"/>
<path style=" stroke:none;fill-rule:nonzero;fill:rgb(0%,0%,0%);fill-opacity:1;" d="M 130.445312 209.132812 L 138.789062 209.132812 L 138.789062 210.238281 L 130.445312 210.238281 Z M 130.445312 209.132812 "/>
<path style=" stroke:none;fill-rule:nonzero;fill:rgb(0%,0%,0%);fill-opacity:1;" d="M 145.242188 205.289062 L 141.921875 210.480469 L 145.242188 210.480469 Z M 144.898438 204.144531 L 146.550781 204.144531 L 146.550781 210.480469 L 147.941406 210.480469 L 147.941406 211.574219 L 146.550781 211.574219 L 146.550781 213.863281 L 145.242188 213.863281 L 145.242188 211.574219 L 140.855469 211.574219 L 140.855469 210.304688 Z M 144.898438 204.144531 "/>
<g clip-path="url(#clip3)" clip-rule="nonzero">
<path style="fill:none;stroke-width:0.8;stroke-linecap:square;stroke-linejoin:round;stroke:rgb(69.01961%,69.01961%,69.01961%);stroke-opacity:1;stroke-miterlimit:4;" d="M 136.77832 145.798828 L 136.77832 7.201172 " transform="matrix(1.333333,0,0,1.333333,0,0.000000000000014211)"/>
</g>
<path style="fill:none;stroke-width:0.8;stroke-linecap:butt;stroke-linejoin:round;stroke:rgb(0%,0%,0%);stroke-opacity:1;stroke-miterlimit:4;" d="M -0.000808716 -0.00117493 L -0.000808716 3.499802 " transform="matrix(1.333333,0,0,1.333333,182.372172,194.400004)"/>
<path style=" stroke:none;fill-rule:nonzero;fill:rgb(0%,0%,0%);fill-opacity:1;" d="M 173.957031 209.132812 L 182.300781 209.132812 L 182.300781 210.238281 L 173.957031 210.238281 Z M 173.957031 209.132812 "/>
<path style=" stroke:none;fill-rule:nonzero;fill:rgb(0%,0%,0%);fill-opacity:1;" d="M 186.273438 212.757812 L 190.863281 212.757812 L 190.863281 213.863281 L 184.691406 213.863281 L 184.691406 212.757812 C 185.191406 212.242188 185.871094 211.546875 186.734375 210.679688 C 187.59375 209.808594 188.136719 209.246094 188.359375 208.992188 C 188.777344 208.523438 189.070312 208.121094 189.238281 207.792969 C 189.40625 207.464844 189.492188 207.144531 189.492188 206.828125 C 189.492188 206.308594 189.308594 205.890625 188.945312 205.566406 C 188.585938 205.238281 188.113281 205.074219 187.53125 205.074219 C 187.117188 205.074219 186.683594 205.148438 186.222656 205.289062 C 185.765625 205.433594 185.277344 205.648438 184.757812 205.941406 L 184.757812 204.613281 C 185.285156 204.398438 185.78125 204.238281 186.242188 204.132812 C 186.703125 204.023438 187.125 203.96875 187.503906 203.96875 C 188.511719 203.96875 189.316406 204.222656 189.914062 204.726562 C 190.511719 205.226562 190.8125 205.898438 190.8125 206.742188 C 190.8125 207.140625 190.738281 207.519531 190.585938 207.878906 C 190.4375 208.234375 190.164062 208.65625 189.769531 209.144531 C 189.660156 209.269531 189.316406 209.632812 188.734375 210.234375 C 188.152344 210.835938 187.332031 211.679688 186.273438 212.757812 Z M 186.273438 212.757812 "/>
<g clip-path="url(#clip4)" clip-rule="nonzero">
<path style="fill:none;stroke-width:0.8;stroke-linecap:square;stroke-linejoin:round;stroke:rgb(69.01961%,69.01961%,69.01961%);stroke-opacity:1;stroke-miterlimit:4;" d="M 169.412109 145.798828 L 169.412109 7.201172 " transform="matrix(1.333333,0,0,1.333333,0,0.000000000000014211)"/>
</g>
<path style="fill:none;stroke-width:0.8;stroke-linecap:butt;stroke-linejoin:round;stroke:rgb(0%,0%,0%);stroke-opacity:1;stroke-miterlimit:4;" d="M -0.000717163 -0.00117493 L -0.000717163 3.499802 " transform="matrix(1.333333,0,0,1.333333,225.883769,194.400004)"/>
<path style=" stroke:none;fill-rule:nonzero;fill:rgb(0%,0%,0%);fill-opacity:1;" d="M 225.878906 205.011719 C 225.203125 205.011719 224.695312 205.34375 224.351562 206.011719 C 224.011719 206.675781 223.84375 207.675781 223.84375 209.015625 C 223.84375 210.347656 224.011719 211.347656 224.351562 212.011719 C 224.695312 212.679688 225.203125 213.011719 225.878906 213.011719 C 226.5625 213.011719 227.074219 212.679688 227.414062 212.011719 C 227.753906 211.347656 227.925781 210.347656 227.925781 209.015625 C 227.925781 207.675781 227.753906 206.675781 227.414062 206.011719 C 227.074219 205.34375 226.5625 205.011719 225.878906 205.011719 Z M 225.878906 203.96875 C 226.96875 203.96875 227.800781 204.398438 228.378906 205.261719 C 228.953125 206.125 229.238281 207.375 229.238281 209.015625 C 229.238281 210.652344 228.953125 211.898438 228.378906 212.761719 C 227.800781 213.625 226.96875 214.054688 225.878906 214.054688 C 224.789062 214.054688 223.957031 213.625 223.382812 212.761719 C 222.808594 211.898438 222.519531 210.652344 222.519531 209.015625 C 222.519531 207.375 222.808594 206.125 223.382812 205.261719 C 223.957031 204.398438 224.789062 203.96875 225.878906 203.96875 Z M 225.878906 203.96875 "/>
<g clip-path="url(#clip5)" clip-rule="nonzero">
<path style="fill:none;stroke-width:0.8;stroke-linecap:square;stroke-linejoin:round;stroke:rgb(69.01961%,69.01961%,69.01961%);stroke-opacity:1;stroke-miterlimit:4;" d="M 202.045898 145.798828 L 202.045898 7.201172 " transform="matrix(1.333333,0,0,1.333333,0,0.000000000000014211)"/>
</g>
<path style="fill:none;stroke-width:0.8;stroke-linecap:butt;stroke-linejoin:round;stroke:rgb(0%,0%,0%);stroke-opacity:1;stroke-miterlimit:4;" d="M -0.000640869 -0.00117493 L -0.000640869 3.499802 " transform="matrix(1.333333,0,0,1.333333,269.395386,194.400004)"/>
<path style=" stroke:none;fill-rule:nonzero;fill:rgb(0%,0%,0%);fill-opacity:1;" d="M 267.710938 212.757812 L 272.300781 212.757812 L 272.300781 213.863281 L 266.128906 213.863281 L 266.128906 212.757812 C 266.628906 212.242188 267.308594 211.546875 268.171875 210.679688 C 269.03125 209.808594 269.574219 209.246094 269.796875 208.992188 C 270.214844 208.523438 270.511719 208.121094 270.675781 207.792969 C 270.84375 207.464844 270.929688 207.144531 270.929688 206.828125 C 270.929688 206.308594 270.746094 205.890625 270.386719 205.566406 C 270.023438 205.238281 269.550781 205.074219 268.96875 205.074219 C 268.554688 205.074219 268.121094 205.148438 267.660156 205.289062 C 267.207031 205.433594 266.714844 205.648438 266.195312 205.941406 L 266.195312 204.613281 C 266.722656 204.398438 267.21875 204.238281 267.679688 204.132812 C 268.140625 204.023438 268.5625 203.96875 268.941406 203.96875 C 269.949219 203.96875 270.753906 204.222656 271.351562 204.726562 C 271.949219 205.226562 272.25 205.898438 272.25 206.742188 C 272.25 207.140625 272.175781 207.519531 272.023438 207.878906 C 271.875 208.234375 271.605469 208.65625 271.207031 209.144531 C 271.097656 209.269531 270.753906 209.632812 270.171875 210.234375 C 269.59375 210.835938 268.773438 211.679688 267.710938 212.757812 Z M 267.710938 212.757812 "/>
<g clip-path="url(#clip6)" clip-rule="nonzero">
<path style="fill:none;stroke-width:0.8;stroke-linecap:square;stroke-linejoin:round;stroke:rgb(69.01961%,69.01961%,69.01961%);stroke-opacity:1;stroke-miterlimit:4;" d="M 234.679688 145.798828 L 234.679688 7.201172 " transform="matrix(1.333333,0,0,1.333333,0,0.000000000000014211)"/>
</g>
<path style="fill:none;stroke-width:0.8;stroke-linecap:butt;stroke-linejoin:round;stroke:rgb(0%,0%,0%);stroke-opacity:1;stroke-miterlimit:4;" d="M -0.000549316 -0.00117493 L -0.000549316 3.499802 " transform="matrix(1.333333,0,0,1.333333,312.906982,194.400004)"/>
<path style=" stroke:none;fill-rule:nonzero;fill:rgb(0%,0%,0%);fill-opacity:1;" d="M 313.703125 205.289062 L 310.382812 210.480469 L 313.703125 210.480469 Z M 313.359375 204.144531 L 315.011719 204.144531 L 315.011719 210.480469 L 316.402344 210.480469 L 316.402344 211.574219 L 315.011719 211.574219 L 315.011719 213.863281 L 313.703125 213.863281 L 313.703125 211.574219 L 309.316406 211.574219 L 309.316406 210.304688 Z M 313.359375 204.144531 "/>
<g clip-path="url(#clip7)" clip-rule="nonzero">
<path style="fill:none;stroke-width:0.8;stroke-linecap:square;stroke-linejoin:round;stroke:rgb(69.01961%,69.01961%,69.01961%);stroke-opacity:1;stroke-miterlimit:4;" d="M 267.313477 145.798828 L 267.313477 7.201172 " transform="matrix(1.333333,0,0,1.333333,0,0.000000000000014211)"/>
</g>
<path style="fill:none;stroke-width:0.8;stroke-linecap:butt;stroke-linejoin:round;stroke:rgb(0%,0%,0%);stroke-opacity:1;stroke-miterlimit:4;" d="M -0.000457764 -0.00117493 L -0.000457764 3.499802 " transform="matrix(1.333333,0,0,1.333333,356.418579,194.400004)"/>
<path style=" stroke:none;fill-rule:nonzero;fill:rgb(0%,0%,0%);fill-opacity:1;" d="M 356.578125 208.480469 C 355.988281 208.480469 355.519531 208.683594 355.175781 209.085938 C 354.832031 209.492188 354.65625 210.042969 354.65625 210.746094 C 354.65625 211.445312 354.832031 211.996094 355.175781 212.402344 C 355.519531 212.808594 355.988281 213.011719 356.578125 213.011719 C 357.167969 213.011719 357.636719 212.808594 357.980469 212.402344 C 358.324219 211.996094 358.496094 211.445312 358.496094 210.746094 C 358.496094 210.042969 358.324219 209.492188 357.980469 209.085938 C 357.636719 208.683594 357.167969 208.480469 356.578125 208.480469 Z M 359.1875 204.359375 L 359.1875 205.554688 C 358.859375 205.402344 358.527344 205.28125 358.1875 205.199219 C 357.851562 205.117188 357.519531 205.074219 357.1875 205.074219 C 356.320312 205.074219 355.65625 205.367188 355.199219 205.953125 C 354.742188 206.539062 354.480469 207.425781 354.417969 208.609375 C 354.671875 208.234375 354.992188 207.941406 355.378906 207.742188 C 355.765625 207.539062 356.191406 207.441406 356.65625 207.441406 C 357.632812 207.441406 358.402344 207.734375 358.96875 208.328125 C 359.539062 208.921875 359.820312 209.726562 359.820312 210.746094 C 359.820312 211.746094 359.527344 212.546875 358.933594 213.148438 C 358.34375 213.753906 357.558594 214.054688 356.578125 214.054688 C 355.453125 214.054688 354.59375 213.625 354 212.761719 C 353.40625 211.898438 353.109375 210.652344 353.109375 209.015625 C 353.109375 207.476562 353.472656 206.253906 354.203125 205.339844 C 354.929688 204.425781 355.910156 203.96875 357.136719 203.96875 C 357.46875 203.96875 357.800781 204 358.136719 204.066406 C 358.472656 204.132812 358.824219 204.230469 359.1875 204.359375 Z M 359.1875 204.359375 "/>
<path style=" stroke:none;fill-rule:nonzero;fill:rgb(0%,0%,0%);fill-opacity:1;" d="M 229.148438 224.808594 L 226.511719 228.359375 L 229.285156 232.101562 L 227.871094 232.101562 L 225.746094 229.238281 L 223.628906 232.101562 L 222.210938 232.101562 L 225.046875 228.289062 L 222.453125 224.808594 L 223.867188 224.808594 L 225.800781 227.410156 L 227.734375 224.808594 Z M 229.148438 224.808594 "/>
<g clip-path="url(#clip8)" clip-rule="nonzero">
<path style="fill:none;stroke-width:0.8;stroke-linecap:square;stroke-linejoin:round;stroke:rgb(69.01961%,69.01961%,69.01961%);stroke-opacity:1;stroke-miterlimit:4;" d="M 43.78125 139.5 L 294.881836 139.5 " transform="matrix(1.333333,0,0,1.333333,0,0.000000000000014211)"/>
</g>
<path style="fill:none;stroke-width:0.8;stroke-linecap:butt;stroke-linejoin:round;stroke:rgb(0%,0%,0%);stroke-opacity:1;stroke-miterlimit:4;" d="M 0 0 L -3.500977 0 " transform="matrix(1.333333,0,0,1.333333,58.375,186)"/>
<path style=" stroke:none;fill-rule:nonzero;fill:rgb(0%,0%,0%);fill-opacity:1;" d="M 32.074219 182.210938 C 31.398438 182.210938 30.890625 182.542969 30.546875 183.210938 C 30.207031 183.875 30.039062 184.878906 30.039062 186.214844 C 30.039062 187.546875 30.207031 188.546875 30.546875 189.214844 C 30.890625 189.878906 31.398438 190.214844 32.074219 190.214844 C 32.757812 190.214844 33.269531 189.878906 33.609375 189.214844 C 33.949219 188.546875 34.121094 187.546875 34.121094 186.214844 C 34.121094 184.878906 33.949219 183.875 33.609375 183.210938 C 33.269531 182.542969 32.757812 182.210938 32.074219 182.210938 Z M 32.074219 181.167969 C 33.164062 181.167969 33.996094 181.601562 34.574219 182.464844 C 35.148438 183.324219 35.433594 184.574219 35.433594 186.214844 C 35.433594 187.851562 35.148438 189.101562 34.574219 189.964844 C 33.996094 190.824219 33.164062 191.253906 32.074219 191.253906 C 30.984375 191.253906 30.152344 190.824219 29.578125 189.964844 C 29.003906 189.101562 28.714844 187.851562 28.714844 186.214844 C 28.714844 184.574219 29.003906 183.324219 29.578125 182.464844 C 30.152344 181.601562 30.984375 181.167969 32.074219 181.167969 Z M 32.074219 181.167969 "/>
<path style=" stroke:none;fill-rule:nonzero;fill:rgb(0%,0%,0%);fill-opacity:1;" d="M 37.746094 189.410156 L 39.121094 189.410156 L 39.121094 191.066406 L 37.746094 191.066406 Z M 37.746094 189.410156 "/>
<path style=" stroke:none;fill-rule:nonzero;fill:rgb(0%,0%,0%);fill-opacity:1;" d="M 44.796875 182.210938 C 44.121094 182.210938 43.609375 182.542969 43.269531 183.210938 C 42.929688 183.875 42.757812 184.878906 42.757812 186.214844 C 42.757812 187.546875 42.929688 188.546875 43.269531 189.214844 C 43.609375 189.878906 44.121094 190.214844 44.796875 190.214844 C 45.476562 190.214844 45.988281 189.878906 46.328125 189.214844 C 46.671875 188.546875 46.84375 187.546875 46.84375 186.214844 C 46.84375 184.878906 46.671875 183.875 46.328125 183.210938 C 45.988281 182.542969 45.476562 182.210938 44.796875 182.210938 Z M 44.796875 181.167969 C 45.886719 181.167969 46.71875 181.601562 47.292969 182.464844 C 47.871094 183.324219 48.15625 184.574219 48.15625 186.214844 C 48.15625 187.851562 47.871094 189.101562 47.292969 189.964844 C 46.71875 190.824219 45.886719 191.253906 44.796875 191.253906 C 43.707031 191.253906 42.875 190.824219 42.300781 189.964844 C 41.726562 189.101562 41.4375 187.851562 41.4375 186.214844 C 41.4375 184.574219 41.726562 183.324219 42.300781 182.464844 C 42.875 181.601562 43.707031 181.167969 44.796875 181.167969 Z M 44.796875 181.167969 "/>
<g clip-path="url(#clip9)" clip-rule="nonzero">
<path style="fill:none;stroke-width:0.8;stroke-linecap:square;stroke-linejoin:round;stroke:rgb(69.01961%,69.01961%,69.01961%);stroke-opacity:1;stroke-miterlimit:4;" d="M 43.78125 107.915039 L 294.881836 107.915039 " transform="matrix(1.333333,0,0,1.333333,0,0.000000000000014211)"/>
</g>
<path style="fill:none;stroke-width:0.8;stroke-linecap:butt;stroke-linejoin:round;stroke:rgb(0%,0%,0%);stroke-opacity:1;stroke-miterlimit:4;" d="M 0 -0.00144196 L -3.500977 -0.00144196 " transform="matrix(1.333333,0,0,1.333333,58.375,143.888641)"/>
<path style=" stroke:none;fill-rule:nonzero;fill:rgb(0%,0%,0%);fill-opacity:1;" d="M 32.074219 140.101562 C 31.398438 140.101562 30.890625 140.433594 30.546875 141.101562 C 30.207031 141.765625 30.039062 142.765625 30.039062 144.105469 C 30.039062 145.4375 30.207031 146.433594 30.546875 147.101562 C 30.890625 147.769531 31.398438 148.101562 32.074219 148.101562 C 32.757812 148.101562 33.269531 147.769531 33.609375 147.101562 C 33.949219 146.433594 34.121094 145.4375 34.121094 144.105469 C 34.121094 142.765625 33.949219 141.765625 33.609375 141.101562 C 33.269531 140.433594 32.757812 140.101562 32.074219 140.101562 Z M 32.074219 139.058594 C 33.164062 139.058594 33.996094 139.488281 34.574219 140.351562 C 35.148438 141.214844 35.433594 142.464844 35.433594 144.105469 C 35.433594 145.742188 35.148438 146.988281 34.574219 147.851562 C 33.996094 148.714844 33.164062 149.144531 32.074219 149.144531 C 30.984375 149.144531 30.152344 148.714844 29.578125 147.851562 C 29.003906 146.988281 28.714844 145.742188 28.714844 144.105469 C 28.714844 142.464844 29.003906 141.214844 29.578125 140.351562 C 30.152344 139.488281 30.984375 139.058594 32.074219 139.058594 Z M 32.074219 139.058594 "/>
<path style=" stroke:none;fill-rule:nonzero;fill:rgb(0%,0%,0%);fill-opacity:1;" d="M 37.746094 147.300781 L 39.121094 147.300781 L 39.121094 148.953125 L 37.746094 148.953125 Z M 37.746094 147.300781 "/>
<path style=" stroke:none;fill-rule:nonzero;fill:rgb(0%,0%,0%);fill-opacity:1;" d="M 42.214844 147.847656 L 44.359375 147.847656 L 44.359375 140.429688 L 42.023438 140.898438 L 42.023438 139.703125 L 44.347656 139.234375 L 45.664062 139.234375 L 45.664062 147.847656 L 47.8125 147.847656 L 47.8125 148.953125 L 42.214844 148.953125 Z M 42.214844 147.847656 "/>
<g clip-path="url(#clip10)" clip-rule="nonzero">
<path style="fill:none;stroke-width:0.8;stroke-linecap:square;stroke-linejoin:round;stroke:rgb(69.01961%,69.01961%,69.01961%);stroke-opacity:1;stroke-miterlimit:4;" d="M 43.78125 76.333008 L 294.881836 76.333008 " transform="matrix(1.333333,0,0,1.333333,0,0.000000000000014211)"/>
</g>
<path style="fill:none;stroke-width:0.8;stroke-linecap:butt;stroke-linejoin:round;stroke:rgb(0%,0%,0%);stroke-opacity:1;stroke-miterlimit:4;" d="M 0 0.000038147 L -3.500977 0.000038147 " transform="matrix(1.333333,0,0,1.333333,58.375,101.777293)"/>
<path style=" stroke:none;fill-rule:nonzero;fill:rgb(0%,0%,0%);fill-opacity:1;" d="M 32.074219 97.988281 C 31.398438 97.988281 30.890625 98.320312 30.546875 98.988281 C 30.207031 99.652344 30.039062 100.65625 30.039062 101.992188 C 30.039062 103.324219 30.207031 104.324219 30.546875 104.992188 C 30.890625 105.65625 31.398438 105.992188 32.074219 105.992188 C 32.757812 105.992188 33.269531 105.65625 33.609375 104.992188 C 33.949219 104.324219 34.121094 103.324219 34.121094 101.992188 C 34.121094 100.65625 33.949219 99.652344 33.609375 98.988281 C 33.269531 98.320312 32.757812 97.988281 32.074219 97.988281 Z M 32.074219 96.945312 C 33.164062 96.945312 33.996094 97.378906 34.574219 98.242188 C 35.148438 99.101562 35.433594 100.351562 35.433594 101.992188 C 35.433594 103.628906 35.148438 104.878906 34.574219 105.742188 C 33.996094 106.601562 33.164062 107.03125 32.074219 107.03125 C 30.984375 107.03125 30.152344 106.601562 29.578125 105.742188 C 29.003906 104.878906 28.714844 103.628906 28.714844 101.992188 C 28.714844 100.351562 29.003906 99.101562 29.578125 98.242188 C 30.152344 97.378906 30.984375 96.945312 32.074219 96.945312 Z M 32.074219 96.945312 "/>
<path style=" stroke:none;fill-rule:nonzero;fill:rgb(0%,0%,0%);fill-opacity:1;" d="M 37.746094 105.1875 L 39.121094 105.1875 L 39.121094 106.84375 L 37.746094 106.84375 Z M 37.746094 105.1875 "/>
<path style=" stroke:none;fill-rule:nonzero;fill:rgb(0%,0%,0%);fill-opacity:1;" d="M 43.117188 105.738281 L 47.707031 105.738281 L 47.707031 106.84375 L 41.535156 106.84375 L 41.535156 105.738281 C 42.035156 105.21875 42.714844 104.527344 43.574219 103.65625 C 44.4375 102.785156 44.980469 102.226562 45.199219 101.972656 C 45.621094 101.5 45.914062 101.101562 46.082031 100.773438 C 46.25 100.445312 46.332031 100.121094 46.332031 99.804688 C 46.332031 99.289062 46.152344 98.867188 45.789062 98.542969 C 45.425781 98.214844 44.957031 98.054688 44.375 98.054688 C 43.960938 98.054688 43.527344 98.125 43.066406 98.269531 C 42.609375 98.410156 42.121094 98.628906 41.601562 98.921875 L 41.601562 97.589844 C 42.128906 97.378906 42.625 97.21875 43.082031 97.109375 C 43.546875 97 43.964844 96.945312 44.347656 96.945312 C 45.355469 96.945312 46.15625 97.199219 46.757812 97.703125 C 47.355469 98.207031 47.65625 98.878906 47.65625 99.71875 C 47.65625 100.121094 47.578125 100.5 47.429688 100.859375 C 47.28125 101.214844 47.007812 101.636719 46.613281 102.121094 C 46.503906 102.25 46.160156 102.613281 45.578125 103.214844 C 44.996094 103.816406 44.175781 104.65625 43.117188 105.738281 Z M 43.117188 105.738281 "/>
<g clip-path="url(#clip11)" clip-rule="nonzero">
<path style="fill:none;stroke-width:0.8;stroke-linecap:square;stroke-linejoin:round;stroke:rgb(69.01961%,69.01961%,69.01961%);stroke-opacity:1;stroke-miterlimit:4;" d="M 43.78125 44.748047 L 294.881836 44.748047 " transform="matrix(1.333333,0,0,1.333333,0,0.000000000000014211)"/>
</g>
<path style="fill:none;stroke-width:0.8;stroke-linecap:butt;stroke-linejoin:round;stroke:rgb(0%,0%,0%);stroke-opacity:1;stroke-miterlimit:4;" d="M 0 -0.00140381 L -3.500977 -0.00140381 " transform="matrix(1.333333,0,0,1.333333,58.375,59.665934)"/>
<path style=" stroke:none;fill-rule:nonzero;fill:rgb(0%,0%,0%);fill-opacity:1;" d="M 32.074219 55.878906 C 31.398438 55.878906 30.890625 56.210938 30.546875 56.878906 C 30.207031 57.542969 30.039062 58.542969 30.039062 59.882812 C 30.039062 61.214844 30.207031 62.210938 30.546875 62.878906 C 30.890625 63.546875 31.398438 63.878906 32.074219 63.878906 C 32.757812 63.878906 33.269531 63.546875 33.609375 62.878906 C 33.949219 62.210938 34.121094 61.214844 34.121094 59.882812 C 34.121094 58.542969 33.949219 57.542969 33.609375 56.878906 C 33.269531 56.210938 32.757812 55.878906 32.074219 55.878906 Z M 32.074219 54.835938 C 33.164062 54.835938 33.996094 55.265625 34.574219 56.128906 C 35.148438 56.992188 35.433594 58.242188 35.433594 59.882812 C 35.433594 61.519531 35.148438 62.765625 34.574219 63.628906 C 33.996094 64.492188 33.164062 64.921875 32.074219 64.921875 C 30.984375 64.921875 30.152344 64.492188 29.578125 63.628906 C 29.003906 62.765625 28.714844 61.519531 28.714844 59.882812 C 28.714844 58.242188 29.003906 56.992188 29.578125 56.128906 C 30.152344 55.265625 30.984375 54.835938 32.074219 54.835938 Z M 32.074219 54.835938 "/>
<path style=" stroke:none;fill-rule:nonzero;fill:rgb(0%,0%,0%);fill-opacity:1;" d="M 37.746094 63.078125 L 39.121094 63.078125 L 39.121094 64.730469 L 37.746094 64.730469 Z M 37.746094 63.078125 "/>
<path style=" stroke:none;fill-rule:nonzero;fill:rgb(0%,0%,0%);fill-opacity:1;" d="M 45.96875 59.488281 C 46.597656 59.625 47.089844 59.90625 47.441406 60.332031 C 47.796875 60.757812 47.972656 61.28125 47.972656 61.90625 C 47.972656 62.863281 47.644531 63.605469 46.984375 64.132812 C 46.324219 64.660156 45.386719 64.921875 44.171875 64.921875 C 43.765625 64.921875 43.34375 64.882812 42.914062 64.800781 C 42.480469 64.71875 42.035156 64.597656 41.574219 64.4375 L 41.574219 63.167969 C 41.9375 63.382812 42.339844 63.542969 42.769531 63.648438 C 43.207031 63.757812 43.660156 63.8125 44.132812 63.8125 C 44.957031 63.8125 45.585938 63.648438 46.015625 63.324219 C 46.449219 63 46.664062 62.527344 46.664062 61.90625 C 46.664062 61.332031 46.464844 60.886719 46.0625 60.5625 C 45.660156 60.238281 45.101562 60.078125 44.386719 60.078125 L 43.253906 60.078125 L 43.253906 58.996094 L 44.441406 58.996094 C 45.085938 58.996094 45.582031 58.867188 45.921875 58.609375 C 46.265625 58.351562 46.4375 57.976562 46.4375 57.492188 C 46.4375 56.992188 46.261719 56.609375 45.90625 56.34375 C 45.554688 56.074219 45.046875 55.941406 44.386719 55.941406 C 44.027344 55.941406 43.640625 55.980469 43.226562 56.0625 C 42.816406 56.136719 42.363281 56.257812 41.867188 56.421875 L 41.867188 55.253906 C 42.367188 55.113281 42.835938 55.007812 43.269531 54.941406 C 43.707031 54.871094 44.117188 54.835938 44.503906 54.835938 C 45.503906 54.835938 46.292969 55.0625 46.875 55.515625 C 47.457031 55.96875 47.746094 56.582031 47.746094 57.355469 C 47.746094 57.894531 47.59375 58.347656 47.285156 58.71875 C 46.976562 59.089844 46.539062 59.347656 45.96875 59.488281 Z M 45.96875 59.488281 "/>
<g clip-path="url(#clip12)" clip-rule="nonzero">
<path style="fill:none;stroke-width:0.8;stroke-linecap:square;stroke-linejoin:round;stroke:rgb(69.01961%,69.01961%,69.01961%);stroke-opacity:1;stroke-miterlimit:4;" d="M 43.78125 13.166016 L 294.881836 13.166016 " transform="matrix(1.333333,0,0,1.333333,0,0.000000000000014211)"/>
</g>
<path style="fill:none;stroke-width:0.8;stroke-linecap:butt;stroke-linejoin:round;stroke:rgb(0%,0%,0%);stroke-opacity:1;stroke-miterlimit:4;" d="M 0 0.0000810623 L -3.500977 0.0000810623 " transform="matrix(1.333333,0,0,1.333333,58.375,17.554579)"/>
<path style=" stroke:none;fill-rule:nonzero;fill:rgb(0%,0%,0%);fill-opacity:1;" d="M 32.074219 13.765625 C 31.398438 13.765625 30.890625 14.097656 30.546875 14.765625 C 30.207031 15.429688 30.039062 16.433594 30.039062 17.769531 C 30.039062 19.101562 30.207031 20.101562 30.546875 20.769531 C 30.890625 21.433594 31.398438 21.769531 32.074219 21.769531 C 32.757812 21.769531 33.269531 21.433594 33.609375 20.769531 C 33.949219 20.101562 34.121094 19.101562 34.121094 17.769531 C 34.121094 16.433594 33.949219 15.429688 33.609375 14.765625 C 33.269531 14.097656 32.757812 13.765625 32.074219 13.765625 Z M 32.074219 12.722656 C 33.164062 12.722656 33.996094 13.15625 34.574219 14.019531 C 35.148438 14.878906 35.433594 16.128906 35.433594 17.769531 C 35.433594 19.40625 35.148438 20.65625 34.574219 21.519531 C 33.996094 22.378906 33.164062 22.808594 32.074219 22.808594 C 30.984375 22.808594 30.152344 22.378906 29.578125 21.519531 C 29.003906 20.65625 28.714844 19.40625 28.714844 17.769531 C 28.714844 16.128906 29.003906 14.878906 29.578125 14.019531 C 30.152344 13.15625 30.984375 12.722656 32.074219 12.722656 Z M 32.074219 12.722656 "/>
<path style=" stroke:none;fill-rule:nonzero;fill:rgb(0%,0%,0%);fill-opacity:1;" d="M 37.746094 20.964844 L 39.121094 20.964844 L 39.121094 22.621094 L 37.746094 22.621094 Z M 37.746094 20.964844 "/>
<path style=" stroke:none;fill-rule:nonzero;fill:rgb(0%,0%,0%);fill-opacity:1;" d="M 45.597656 14.046875 L 42.277344 19.234375 L 45.597656 19.234375 Z M 45.253906 12.898438 L 46.90625 12.898438 L 46.90625 19.234375 L 48.292969 19.234375 L 48.292969 20.328125 L 46.90625 20.328125 L 46.90625 22.621094 L 45.597656 22.621094 L 45.597656 20.328125 L 41.210938 20.328125 L 41.210938 19.058594 Z M 45.253906 12.898438 "/>
<path style=" stroke:none;fill-rule:nonzero;fill:rgb(0%,0%,0%);fill-opacity:1;" d="M 18.636719 112.964844 L 22.503906 112.964844 L 22.503906 114.167969 L 12.441406 114.167969 L 12.441406 112.964844 L 13.546875 112.964844 C 13.113281 112.710938 12.789062 112.394531 12.582031 112.011719 C 12.371094 111.625 12.265625 111.167969 12.265625 110.632812 C 12.265625 109.75 12.617188 109.027344 13.320312 108.476562 C 14.023438 107.921875 14.945312 107.644531 16.089844 107.644531 C 17.238281 107.644531 18.164062 107.921875 18.867188 108.476562 C 19.570312 109.027344 19.921875 109.75 19.921875 110.632812 C 19.921875 111.167969 19.816406 111.625 19.605469 112.011719 C 19.394531 112.394531 19.070312 112.710938 18.636719 112.964844 Z M 16.089844 108.886719 C 15.210938 108.886719 14.519531 109.070312 14.019531 109.433594 C 13.515625 109.792969 13.265625 110.292969 13.265625 110.925781 C 13.265625 111.5625 13.515625 112.058594 14.019531 112.421875 C 14.519531 112.785156 15.210938 112.964844 16.089844 112.964844 C 16.972656 112.964844 17.664062 112.785156 18.164062 112.421875 C 18.664062 112.058594 18.917969 111.5625 18.917969 110.925781 C 18.917969 110.292969 18.664062 109.792969 18.164062 109.433594 C 17.664062 109.070312 16.972656 108.886719 16.089844 108.886719 Z M 16.089844 108.886719 "/>
<path style=" stroke:none;fill-rule:nonzero;fill:rgb(0%,0%,0%);fill-opacity:1;" d="M 9.613281 102.785156 C 10.613281 103.363281 11.597656 103.796875 12.578125 104.078125 C 13.554688 104.359375 14.542969 104.503906 15.546875 104.503906 C 16.546875 104.503906 17.539062 104.359375 18.523438 104.074219 C 19.507812 103.789062 20.496094 103.359375 21.488281 102.785156 L 21.488281 103.824219 C 20.46875 104.476562 19.464844 104.960938 18.480469 105.285156 C 17.496094 105.609375 16.519531 105.769531 15.546875 105.769531 C 14.578125 105.769531 13.601562 105.609375 12.621094 105.289062 C 11.640625 104.96875 10.636719 104.480469 9.613281 103.824219 Z M 9.613281 102.785156 "/>
<path style=" stroke:none;fill-rule:nonzero;fill:rgb(0%,0%,0%);fill-opacity:1;" d="M 12.441406 94.394531 L 15.988281 97.035156 L 19.730469 94.261719 L 19.730469 95.671875 L 16.867188 97.796875 L 19.730469 99.917969 L 19.730469 101.332031 L 15.917969 98.5 L 12.441406 101.089844 L 12.441406 99.675781 L 15.039062 97.742188 L 12.441406 95.8125 Z M 12.441406 94.394531 "/>
<path style=" stroke:none;fill-rule:nonzero;fill:rgb(0%,0%,0%);fill-opacity:1;" d="M 9.613281 92.753906 L 9.613281 91.714844 C 10.636719 91.0625 11.640625 90.578125 12.621094 90.253906 C 13.601562 89.929688 14.578125 89.769531 15.546875 89.769531 C 16.519531 89.769531 17.496094 89.929688 18.480469 90.253906 C 19.464844 90.578125 20.46875 91.0625 21.488281 91.714844 L 21.488281 92.753906 C 20.496094 92.179688 19.507812 91.75 18.523438 91.464844 C 17.539062 91.179688 16.546875 91.035156 15.546875 91.035156 C 14.542969 91.035156 13.554688 91.179688 12.578125 91.464844 C 11.597656 91.75 10.613281 92.179688 9.613281 92.753906 Z M 9.613281 92.753906 "/>
<path style="fill:none;stroke-width:1.5;stroke-linecap:square;stroke-linejoin:round;stroke:rgb(12.156863%,46.666667%,70.588237%);stroke-opacity:1;stroke-miterlimit:4;" d="M 55.195312 139.5 L 108.061523 139.391602 L 113.446289 139.148438 L 117.035156 138.770508 L 119.80957 138.260742 L 122.094727 137.619141 L 124.051758 136.857422 L 125.847656 135.931641 L 127.479492 134.865234 L 129.111328 133.535156 L 130.743164 131.90332 L 132.375 129.919922 L 133.842773 127.792969 L 135.474609 125.015625 L 137.106445 121.754883 L 138.738281 117.978516 L 140.370117 113.657227 L 142.163086 108.254883 L 144.123047 101.595703 L 146.244141 93.524414 L 148.69043 83.25 L 151.790039 69.178711 L 157.828125 41.572266 L 159.949219 33.005859 L 161.745117 26.674805 L 163.212891 22.277344 L 164.516602 19.042969 L 165.65918 16.790039 L 166.637695 15.307617 L 167.455078 14.405273 L 168.269531 13.807617 L 168.922852 13.555664 L 169.576172 13.505859 L 170.229492 13.658203 L 170.882812 14.009766 L 171.697266 14.727539 L 172.511719 15.75293 L 173.493164 17.375977 L 174.632812 19.790039 L 175.775391 22.725586 L 177.082031 26.674805 L 178.713867 32.393555 L 180.670898 40.192383 L 183.120117 50.958984 L 192.257812 92.211914 L 194.540039 101.006836 L 196.5 107.730469 L 198.457031 113.657227 L 200.25293 118.379883 L 201.884766 122.103516 L 203.513672 125.314453 L 205.145508 128.047852 L 206.777344 130.344727 L 208.40918 132.254883 L 210.041016 133.825195 L 211.672852 135.09668 L 213.46875 136.209961 L 215.425781 137.135742 L 217.546875 137.876953 L 219.832031 138.436523 L 222.606445 138.878906 L 226.03125 139.195312 L 230.926758 139.397461 L 239.411133 139.488281 L 277.104492 139.5 L 283.467773 139.5 " transform="matrix(1.333333,0,0,1.333333,0,0.000000000000014211)"/>
<path style="fill:none;stroke-width:1.5;stroke-linecap:butt;stroke-linejoin:round;stroke:rgb(74.901962%,0%,74.901962%);stroke-opacity:1;stroke-dasharray:5.55,2.4;stroke-miterlimit:4;" d="M 55.195312 139.362305 L 65.636719 139.098633 L 72.981445 138.700195 L 78.691406 138.178711 L 83.586914 137.516602 L 87.993164 136.696289 L 91.907227 135.74707 L 95.496094 134.654297 L 98.923828 133.388672 L 102.1875 131.950195 L 105.451172 130.271484 L 108.714844 128.329102 L 111.978516 126.111328 L 115.242188 123.615234 L 118.50293 120.84082 L 121.930664 117.641602 L 125.683594 113.830078 L 130.089844 109.019531 L 136.125 102.052734 L 144.448242 92.481445 L 148.365234 88.333008 L 151.628906 85.195312 L 154.400391 82.825195 L 157.010742 80.888672 L 159.295898 79.456055 L 161.581055 78.287109 L 163.702148 77.458008 L 165.65918 76.916016 L 167.619141 76.59668 L 169.576172 76.5 L 171.533203 76.631836 L 173.493164 76.989258 L 175.450195 77.569336 L 177.571289 78.439453 L 179.692383 79.549805 L 181.977539 81 L 184.423828 82.825195 L 187.03418 85.045898 L 189.972656 87.84082 L 193.397461 91.412109 L 197.803711 96.348633 L 212.979492 113.657227 L 216.893555 117.641602 L 220.485352 120.987305 L 223.910156 123.878906 L 227.173828 126.345703 L 230.4375 128.53418 L 233.701172 130.450195 L 236.964844 132.105469 L 240.228516 133.517578 L 243.65332 134.762695 L 247.245117 135.834961 L 251.15918 136.766602 L 255.401367 137.542969 L 260.135742 138.178711 L 265.681641 138.688477 L 272.373047 139.066406 L 281.021484 139.318359 L 283.467773 139.359375 " transform="matrix(1.333333,0,0,1.333333,0,0.000000000000014211)"/>
<path style="fill:none;stroke-width:1.5;stroke-linecap:butt;stroke-linejoin:round;stroke:rgb(0%,50.196081%,0%);stroke-opacity:1;stroke-dasharray:9.6,2.4,1.5,2.4;stroke-miterlimit:4;" d="M 55.195312 139.5 L 157.010742 139.391602 L 162.395508 139.148438 L 165.987305 138.770508 L 168.758789 138.260742 L 171.043945 137.619141 L 173.003906 136.857422 L 174.796875 135.931641 L 176.428711 134.865234 L 178.060547 133.535156 L 179.692383 131.90332 L 181.324219 129.919922 L 182.791992 127.792969 L 184.423828 125.015625 L 186.055664 121.754883 L 187.6875 117.978516 L 189.319336 113.657227 L 191.115234 108.254883 L 193.072266 101.595703 L 195.193359 93.524414 L 197.639648 83.25 L 200.742188 69.178711 L 206.777344 41.572266 L 208.898438 33.005859 L 210.694336 26.674805 L 212.162109 22.277344 L 213.46875 19.042969 L 214.611328 16.790039 L 215.589844 15.307617 L 216.404297 14.405273 L 217.22168 13.807617 L 217.875 13.555664 L 218.525391 13.505859 L 219.178711 13.658203 L 219.832031 14.009766 L 220.646484 14.727539 L 221.463867 15.75293 L 222.442383 17.375977 L 223.584961 19.790039 L 224.727539 22.725586 L 226.03125 26.674805 L 227.663086 32.393555 L 229.623047 40.192383 L 232.069336 50.958984 L 241.207031 92.211914 L 243.492188 101.006836 L 245.449219 107.730469 L 247.40625 113.657227 L 249.202148 118.379883 L 250.833984 122.103516 L 252.46582 125.314453 L 254.097656 128.047852 L 255.729492 130.344727 L 257.361328 132.254883 L 258.993164 133.825195 L 260.625 135.09668 L 262.417969 136.209961 L 264.37793 137.135742 L 266.499023 137.876953 L 268.78125 138.436523 L 271.555664 138.878906 L 274.983398 139.195312 L 279.878906 139.397461 L 283.467773 139.456055 " transform="matrix(1.333333,0,0,1.333333,0,0.000000000000014211)"/>
<path style="fill:none;stroke-width:0.8;stroke-linecap:square;stroke-linejoin:miter;stroke:rgb(0%,0%,0%);stroke-opacity:1;stroke-miterlimit:4;" d="M 43.78125 145.798828 L 43.78125 7.201172 " transform="matrix(1.333333,0,0,1.333333,0,0.000000000000014211)"/>
<path style="fill:none;stroke-width:0.8;stroke-linecap:square;stroke-linejoin:miter;stroke:rgb(0%,0%,0%);stroke-opacity:1;stroke-miterlimit:4;" d="M 294.881836 145.798828 L 294.881836 7.201172 " transform="matrix(1.333333,0,0,1.333333,0,0.000000000000014211)"/>
<path style="fill:none;stroke-width:0.8;stroke-linecap:square;stroke-linejoin:miter;stroke:rgb(0%,0%,0%);stroke-opacity:1;stroke-miterlimit:4;" d="M 43.78125 145.798828 L 294.881836 145.798828 " transform="matrix(1.333333,0,0,1.333333,0,0.000000000000014211)"/>
<path style="fill:none;stroke-width:0.8;stroke-linecap:square;stroke-linejoin:miter;stroke:rgb(0%,0%,0%);stroke-opacity:1;stroke-miterlimit:4;" d="M 43.78125 7.201172 L 294.881836 7.201172 " transform="matrix(1.333333,0,0,1.333333,0,0.000000000000014211)"/>
<use xlink:href="#surface5" mask="url(#mask0)"/>
<path style="fill:none;stroke-width:1.5;stroke-linecap:square;stroke-linejoin:round;stroke:rgb(12.156863%,46.666667%,70.588237%);stroke-opacity:1;stroke-miterlimit:4;" d="M 52.78125 20.299805 L 72.782227 20.299805 " transform="matrix(1.333333,0,0,1.333333,0,0.000000000000014211)"/>
<path style=" stroke:none;fill-rule:nonzero;fill:rgb(0%,0%,0%);fill-opacity:1;" d="M 114.640625 25.839844 C 114.941406 25.300781 115.300781 24.902344 115.714844 24.648438 C 116.132812 24.390625 116.625 24.265625 117.1875 24.265625 C 117.945312 24.265625 118.535156 24.53125 118.945312 25.0625 C 119.359375 25.59375 119.566406 26.347656 119.566406 27.328125 L 119.566406 31.730469 L 118.359375 31.730469 L 118.359375 27.367188 C 118.359375 26.671875 118.234375 26.152344 117.988281 25.816406 C 117.742188 25.476562 117.363281 25.304688 116.855469 25.304688 C 116.234375 25.304688 115.746094 25.511719 115.382812 25.925781 C 115.023438 26.335938 114.84375 26.898438 114.84375 27.609375 L 114.84375 31.730469 L 113.640625 31.730469 L 113.640625 27.367188 C 113.640625 26.664062 113.515625 26.148438 113.269531 25.808594 C 113.023438 25.472656 112.640625 25.304688 112.121094 25.304688 C 111.511719 25.304688 111.023438 25.511719 110.664062 25.925781 C 110.304688 26.339844 110.121094 26.902344 110.121094 27.609375 L 110.121094 31.730469 L 108.917969 31.730469 L 108.917969 24.441406 L 110.121094 24.441406 L 110.121094 25.574219 C 110.398438 25.125 110.722656 24.796875 111.105469 24.582031 C 111.488281 24.371094 111.941406 24.265625 112.464844 24.265625 C 112.996094 24.265625 113.449219 24.398438 113.820312 24.667969 C 114.191406 24.9375 114.464844 25.328125 114.640625 25.839844 Z M 114.640625 25.839844 "/>
<path style=" stroke:none;fill-rule:nonzero;fill:rgb(0%,0%,0%);fill-opacity:1;" d="M 128.191406 27.785156 L 128.191406 28.371094 L 122.683594 28.371094 C 122.734375 29.195312 122.984375 29.824219 123.429688 30.257812 C 123.871094 30.6875 124.492188 30.902344 125.285156 30.902344 C 125.746094 30.902344 126.191406 30.847656 126.625 30.734375 C 127.054688 30.621094 127.484375 30.453125 127.910156 30.226562 L 127.910156 31.359375 C 127.480469 31.542969 127.039062 31.679688 126.589844 31.777344 C 126.136719 31.871094 125.679688 31.921875 125.214844 31.921875 C 124.050781 31.921875 123.128906 31.582031 122.449219 30.90625 C 121.773438 30.226562 121.433594 29.3125 121.433594 28.15625 C 121.433594 26.964844 121.753906 26.015625 122.398438 25.316406 C 123.042969 24.617188 123.914062 24.265625 125.007812 24.265625 C 125.988281 24.265625 126.761719 24.582031 127.335938 25.210938 C 127.90625 25.84375 128.191406 26.699219 128.191406 27.785156 Z M 126.992188 27.433594 C 126.984375 26.777344 126.800781 26.257812 126.441406 25.867188 C 126.085938 25.476562 125.609375 25.277344 125.019531 25.277344 C 124.351562 25.277344 123.816406 25.46875 123.414062 25.847656 C 123.015625 26.222656 122.78125 26.753906 122.722656 27.441406 Z M 126.992188 27.433594 "/>
<path style=" stroke:none;fill-rule:nonzero;fill:rgb(0%,0%,0%);fill-opacity:1;" d="M 133.46875 28.066406 C 132.503906 28.066406 131.832031 28.175781 131.457031 28.398438 C 131.085938 28.617188 130.898438 28.996094 130.898438 29.53125 C 130.898438 29.957031 131.039062 30.292969 131.320312 30.542969 C 131.597656 30.792969 131.980469 30.917969 132.460938 30.917969 C 133.125 30.917969 133.660156 30.679688 134.058594 30.210938 C 134.460938 29.738281 134.664062 29.113281 134.664062 28.332031 L 134.664062 28.066406 Z M 135.859375 27.570312 L 135.859375 31.730469 L 134.664062 31.730469 L 134.664062 30.625 C 134.386719 31.066406 134.046875 31.394531 133.640625 31.605469 C 133.230469 31.816406 132.730469 31.921875 132.140625 31.921875 C 131.394531 31.921875 130.800781 31.710938 130.359375 31.292969 C 129.917969 30.871094 129.699219 30.3125 129.699219 29.609375 C 129.699219 28.789062 129.972656 28.171875 130.523438 27.753906 C 131.074219 27.335938 131.890625 27.128906 132.980469 27.128906 L 134.664062 27.128906 L 134.664062 27.011719 C 134.664062 26.460938 134.480469 26.03125 134.117188 25.730469 C 133.757812 25.429688 133.246094 25.277344 132.589844 25.277344 C 132.175781 25.277344 131.769531 25.328125 131.371094 25.429688 C 130.976562 25.527344 130.597656 25.679688 130.234375 25.878906 L 130.234375 24.769531 C 130.671875 24.601562 131.097656 24.476562 131.511719 24.390625 C 131.921875 24.308594 132.324219 24.265625 132.714844 24.265625 C 133.769531 24.265625 134.558594 24.539062 135.078125 25.085938 C 135.601562 25.632812 135.859375 26.460938 135.859375 27.570312 Z M 135.859375 27.570312 "/>
<path style=" stroke:none;fill-rule:nonzero;fill:rgb(0%,0%,0%);fill-opacity:1;" d="M 144.390625 27.328125 L 144.390625 31.730469 L 143.191406 31.730469 L 143.191406 27.367188 C 143.191406 26.679688 143.054688 26.164062 142.785156 25.820312 C 142.515625 25.476562 142.113281 25.304688 141.578125 25.304688 C 140.929688 25.304688 140.417969 25.511719 140.046875 25.925781 C 139.671875 26.335938 139.484375 26.898438 139.484375 27.609375 L 139.484375 31.730469 L 138.28125 31.730469 L 138.28125 24.441406 L 139.484375 24.441406 L 139.484375 25.574219 C 139.773438 25.132812 140.109375 24.804688 140.496094 24.589844 C 140.886719 24.371094 141.335938 24.265625 141.84375 24.265625 C 142.679688 24.265625 143.3125 24.523438 143.742188 25.042969 C 144.171875 25.558594 144.390625 26.320312 144.390625 27.328125 Z M 144.390625 27.328125 "/>
<path style=" stroke:none;fill-rule:nonzero;fill:rgb(0%,0%,0%);fill-opacity:1;" d="M 153.996094 22.878906 C 153.320312 22.878906 152.8125 23.210938 152.46875 23.878906 C 152.128906 24.542969 151.960938 25.542969 151.960938 26.882812 C 151.960938 28.214844 152.128906 29.210938 152.46875 29.878906 C 152.8125 30.546875 153.320312 30.878906 153.996094 30.878906 C 154.679688 30.878906 155.191406 30.546875 155.53125 29.878906 C 155.871094 29.210938 156.042969 28.214844 156.042969 26.882812 C 156.042969 25.542969 155.871094 24.542969 155.53125 23.878906 C 155.191406 23.210938 154.679688 22.878906 153.996094 22.878906 Z M 153.996094 21.835938 C 155.085938 21.835938 155.917969 22.265625 156.496094 23.128906 C 157.070312 23.992188 157.355469 25.242188 157.355469 26.882812 C 157.355469 28.515625 157.070312 29.765625 156.496094 30.628906 C 155.917969 31.492188 155.085938 31.921875 153.996094 31.921875 C 152.90625 31.921875 152.074219 31.492188 151.5 30.628906 C 150.925781 29.765625 150.636719 28.515625 150.636719 26.882812 C 150.636719 25.242188 150.925781 23.992188 151.5 23.128906 C 152.074219 22.265625 152.90625 21.835938 153.996094 21.835938 Z M 153.996094 21.835938 "/>
<path style=" stroke:none;fill-rule:nonzero;fill:rgb(0%,0%,0%);fill-opacity:1;" d="M 159.804688 30.078125 L 161.175781 30.078125 L 161.175781 31.199219 L 160.109375 33.28125 L 159.269531 33.28125 L 159.804688 31.199219 Z M 159.804688 30.078125 "/>
<path style=" stroke:none;fill-rule:nonzero;fill:rgb(0%,0%,0%);fill-opacity:1;" d="M 172.621094 24.652344 L 172.621094 25.789062 C 172.285156 25.613281 171.933594 25.484375 171.570312 25.398438 C 171.203125 25.308594 170.828125 25.265625 170.433594 25.265625 C 169.839844 25.265625 169.394531 25.359375 169.097656 25.539062 C 168.800781 25.722656 168.652344 25.996094 168.652344 26.359375 C 168.652344 26.636719 168.757812 26.855469 168.972656 27.015625 C 169.183594 27.171875 169.609375 27.324219 170.253906 27.464844 L 170.664062 27.558594 C 171.515625 27.742188 172.117188 27.996094 172.476562 28.328125 C 172.835938 28.660156 173.015625 29.125 173.015625 29.71875 C 173.015625 30.398438 172.746094 30.933594 172.210938 31.328125 C 171.675781 31.722656 170.9375 31.921875 170 31.921875 C 169.609375 31.921875 169.203125 31.882812 168.777344 31.804688 C 168.355469 31.730469 167.910156 31.617188 167.441406 31.464844 L 167.441406 30.226562 C 167.882812 30.457031 168.320312 30.628906 168.75 30.746094 C 169.179688 30.859375 169.605469 30.917969 170.027344 30.917969 C 170.589844 30.917969 171.023438 30.820312 171.328125 30.628906 C 171.632812 30.433594 171.785156 30.160156 171.785156 29.808594 C 171.785156 29.484375 171.671875 29.234375 171.453125 29.0625 C 171.234375 28.890625 170.753906 28.722656 170.011719 28.558594 L 169.597656 28.460938 C 168.855469 28.308594 168.316406 28.066406 167.988281 27.742188 C 167.660156 27.421875 167.492188 26.976562 167.492188 26.414062 C 167.492188 25.726562 167.738281 25.195312 168.222656 24.824219 C 168.710938 24.453125 169.398438 24.265625 170.292969 24.265625 C 170.734375 24.265625 171.152344 24.296875 171.542969 24.363281 C 171.933594 24.425781 172.292969 24.523438 172.621094 24.652344 Z M 172.621094 24.652344 "/>
<path style=" stroke:none;fill-rule:nonzero;fill:rgb(0%,0%,0%);fill-opacity:1;" d="M 176.105469 22.367188 L 176.105469 24.441406 L 178.574219 24.441406 L 178.574219 25.371094 L 176.105469 25.371094 L 176.105469 29.328125 C 176.105469 29.921875 176.1875 30.304688 176.351562 30.476562 C 176.511719 30.644531 176.84375 30.730469 177.34375 30.730469 L 178.574219 30.730469 L 178.574219 31.730469 L 177.34375 31.730469 C 176.417969 31.730469 175.78125 31.558594 175.429688 31.214844 C 175.078125 30.867188 174.902344 30.242188 174.902344 29.328125 L 174.902344 25.371094 L 174.023438 25.371094 L 174.023438 24.441406 L 174.902344 24.441406 L 174.902344 22.367188 Z M 176.105469 22.367188 "/>
<path style=" stroke:none;fill-rule:nonzero;fill:rgb(0%,0%,0%);fill-opacity:1;" d="M 184.949219 25.546875 L 184.949219 21.601562 L 186.144531 21.601562 L 186.144531 31.730469 L 184.949219 31.730469 L 184.949219 30.636719 C 184.695312 31.070312 184.378906 31.394531 183.992188 31.605469 C 183.609375 31.816406 183.148438 31.921875 182.609375 31.921875 C 181.730469 31.921875 181.011719 31.570312 180.457031 30.867188 C 179.90625 30.164062 179.628906 29.238281 179.628906 28.089844 C 179.628906 26.945312 179.90625 26.023438 180.457031 25.320312 C 181.011719 24.617188 181.730469 24.265625 182.609375 24.265625 C 183.148438 24.265625 183.609375 24.371094 183.992188 24.582031 C 184.378906 24.789062 184.695312 25.113281 184.949219 25.546875 Z M 180.867188 28.089844 C 180.867188 28.972656 181.046875 29.664062 181.410156 30.164062 C 181.773438 30.664062 182.269531 30.917969 182.902344 30.917969 C 183.535156 30.917969 184.035156 30.664062 184.398438 30.164062 C 184.765625 29.664062 184.949219 28.972656 184.949219 28.089844 C 184.949219 27.210938 184.765625 26.519531 184.398438 26.019531 C 184.035156 25.515625 183.535156 25.265625 182.902344 25.265625 C 182.269531 25.265625 181.773438 25.515625 181.410156 26.019531 C 181.046875 26.519531 180.867188 27.210938 180.867188 28.089844 Z M 180.867188 28.089844 "/>
<path style=" stroke:none;fill-rule:nonzero;fill:rgb(0%,0%,0%);fill-opacity:1;" d="M 193.25 30.625 L 195.398438 30.625 L 195.398438 23.207031 L 193.058594 23.675781 L 193.058594 22.480469 L 195.382812 22.011719 L 196.699219 22.011719 L 196.699219 30.625 L 198.847656 30.625 L 198.847656 31.730469 L 193.25 31.730469 Z M 193.25 30.625 "/>
<path style="fill:none;stroke-width:1.5;stroke-linecap:butt;stroke-linejoin:round;stroke:rgb(74.901962%,0%,74.901962%);stroke-opacity:1;stroke-dasharray:5.55,2.4;stroke-miterlimit:4;" d="M 52.78125 34.977539 L 72.782227 34.977539 " transform="matrix(1.333333,0,0,1.333333,0,0.000000000000014211)"/>
<path style=" stroke:none;fill-rule:nonzero;fill:rgb(0%,0%,0%);fill-opacity:1;" d="M 114.640625 45.410156 C 114.941406 44.871094 115.300781 44.472656 115.714844 44.21875 C 116.132812 43.964844 116.625 43.835938 117.1875 43.835938 C 117.945312 43.835938 118.535156 44.101562 118.945312 44.632812 C 119.359375 45.164062 119.566406 45.917969 119.566406 46.898438 L 119.566406 51.300781 L 118.359375 51.300781 L 118.359375 46.941406 C 118.359375 46.242188 118.234375 45.722656 117.988281 45.386719 C 117.742188 45.046875 117.363281 44.878906 116.855469 44.878906 C 116.234375 44.878906 115.746094 45.082031 115.382812 45.496094 C 115.023438 45.90625 114.84375 46.46875 114.84375 47.179688 L 114.84375 51.300781 L 113.640625 51.300781 L 113.640625 46.941406 C 113.640625 46.238281 113.515625 45.71875 113.269531 45.382812 C 113.023438 45.046875 112.640625 44.878906 112.121094 44.878906 C 111.511719 44.878906 111.023438 45.085938 110.664062 45.496094 C 110.304688 45.910156 110.121094 46.472656 110.121094 47.179688 L 110.121094 51.300781 L 108.917969 51.300781 L 108.917969 44.011719 L 110.121094 44.011719 L 110.121094 45.144531 C 110.398438 44.695312 110.722656 44.367188 111.105469 44.152344 C 111.488281 43.941406 111.941406 43.835938 112.464844 43.835938 C 112.996094 43.835938 113.449219 43.96875 113.820312 44.238281 C 114.191406 44.507812 114.464844 44.898438 114.640625 45.410156 Z M 114.640625 45.410156 "/>
<path style=" stroke:none;fill-rule:nonzero;fill:rgb(0%,0%,0%);fill-opacity:1;" d="M 128.191406 47.355469 L 128.191406 47.941406 L 122.683594 47.941406 C 122.734375 48.765625 122.984375 49.394531 123.429688 49.828125 C 123.871094 50.257812 124.492188 50.476562 125.285156 50.476562 C 125.746094 50.476562 126.191406 50.417969 126.625 50.304688 C 127.054688 50.195312 127.484375 50.023438 127.910156 49.796875 L 127.910156 50.929688 C 127.480469 51.113281 127.039062 51.253906 126.589844 51.347656 C 126.136719 51.445312 125.679688 51.492188 125.214844 51.492188 C 124.050781 51.492188 123.128906 51.152344 122.449219 50.476562 C 121.773438 49.800781 121.433594 48.882812 121.433594 47.726562 C 121.433594 46.535156 121.753906 45.585938 122.398438 44.886719 C 123.042969 44.1875 123.914062 43.835938 125.007812 43.835938 C 125.988281 43.835938 126.761719 44.152344 127.335938 44.785156 C 127.90625 45.414062 128.191406 46.273438 128.191406 47.355469 Z M 126.992188 47.003906 C 126.984375 46.351562 126.800781 45.828125 126.441406 45.4375 C 126.085938 45.046875 125.609375 44.851562 125.019531 44.851562 C 124.351562 44.851562 123.816406 45.039062 123.414062 45.417969 C 123.015625 45.792969 122.78125 46.328125 122.722656 47.011719 Z M 126.992188 47.003906 "/>
<path style=" stroke:none;fill-rule:nonzero;fill:rgb(0%,0%,0%);fill-opacity:1;" d="M 133.46875 47.636719 C 132.503906 47.636719 131.832031 47.746094 131.457031 47.96875 C 131.085938 48.191406 130.898438 48.566406 130.898438 49.101562 C 130.898438 49.527344 131.039062 49.863281 131.320312 50.113281 C 131.597656 50.363281 131.980469 50.488281 132.460938 50.488281 C 133.125 50.488281 133.660156 50.253906 134.058594 49.78125 C 134.460938 49.308594 134.664062 48.683594 134.664062 47.902344 L 134.664062 47.636719 Z M 135.859375 47.140625 L 135.859375 51.300781 L 134.664062 51.300781 L 134.664062 50.195312 C 134.386719 50.636719 134.046875 50.964844 133.640625 51.175781 C 133.230469 51.386719 132.730469 51.492188 132.140625 51.492188 C 131.394531 51.492188 130.800781 51.28125 130.359375 50.863281 C 129.917969 50.441406 129.699219 49.882812 129.699219 49.179688 C 129.699219 48.359375 129.972656 47.742188 130.523438 47.324219 C 131.074219 46.910156 131.890625 46.699219 132.980469 46.699219 L 134.664062 46.699219 L 134.664062 46.582031 C 134.664062 46.03125 134.480469 45.601562 134.117188 45.300781 C 133.757812 45 133.246094 44.851562 132.589844 44.851562 C 132.175781 44.851562 131.769531 44.898438 131.371094 45 C 130.976562 45.101562 130.597656 45.25 130.234375 45.449219 L 130.234375 44.339844 C 130.671875 44.171875 131.097656 44.046875 131.511719 43.960938 C 131.921875 43.878906 132.324219 43.835938 132.714844 43.835938 C 133.769531 43.835938 134.558594 44.109375 135.078125 44.65625 C 135.601562 45.203125 135.859375 46.03125 135.859375 47.140625 Z M 135.859375 47.140625 "/>
<path style=" stroke:none;fill-rule:nonzero;fill:rgb(0%,0%,0%);fill-opacity:1;" d="M 144.390625 46.898438 L 144.390625 51.300781 L 143.191406 51.300781 L 143.191406 46.941406 C 143.191406 46.25 143.054688 45.734375 142.785156 45.390625 C 142.515625 45.046875 142.113281 44.878906 141.578125 44.878906 C 140.929688 44.878906 140.417969 45.082031 140.046875 45.496094 C 139.671875 45.90625 139.484375 46.46875 139.484375 47.179688 L 139.484375 51.300781 L 138.28125 51.300781 L 138.28125 44.011719 L 139.484375 44.011719 L 139.484375 45.144531 C 139.773438 44.703125 140.109375 44.378906 140.496094 44.160156 C 140.886719 43.945312 141.335938 43.835938 141.84375 43.835938 C 142.679688 43.835938 143.3125 44.09375 143.742188 44.613281 C 144.171875 45.128906 144.390625 45.894531 144.390625 46.898438 Z M 144.390625 46.898438 "/>
<path style=" stroke:none;fill-rule:nonzero;fill:rgb(0%,0%,0%);fill-opacity:1;" d="M 153.996094 42.449219 C 153.320312 42.449219 152.8125 42.78125 152.46875 43.449219 C 152.128906 44.113281 151.960938 45.113281 151.960938 46.453125 C 151.960938 47.785156 152.128906 48.785156 152.46875 49.449219 C 152.8125 50.117188 153.320312 50.449219 153.996094 50.449219 C 154.679688 50.449219 155.191406 50.117188 155.53125 49.449219 C 155.871094 48.785156 156.042969 47.785156 156.042969 46.453125 C 156.042969 45.113281 155.871094 44.113281 155.53125 43.449219 C 155.191406 42.78125 154.679688 42.449219 153.996094 42.449219 Z M 153.996094 41.40625 C 155.085938 41.40625 155.917969 41.835938 156.496094 42.699219 C 157.070312 43.5625 157.355469 44.8125 157.355469 46.453125 C 157.355469 48.089844 157.070312 49.335938 156.496094 50.199219 C 155.917969 51.0625 155.085938 51.492188 153.996094 51.492188 C 152.90625 51.492188 152.074219 51.0625 151.5 50.199219 C 150.925781 49.335938 150.636719 48.089844 150.636719 46.453125 C 150.636719 44.8125 150.925781 43.5625 151.5 42.699219 C 152.074219 41.835938 152.90625 41.40625 153.996094 41.40625 Z M 153.996094 41.40625 "/>
<path style=" stroke:none;fill-rule:nonzero;fill:rgb(0%,0%,0%);fill-opacity:1;" d="M 159.804688 49.648438 L 161.175781 49.648438 L 161.175781 50.769531 L 160.109375 52.851562 L 159.269531 52.851562 L 159.804688 50.769531 Z M 159.804688 49.648438 "/>
<path style=" stroke:none;fill-rule:nonzero;fill:rgb(0%,0%,0%);fill-opacity:1;" d="M 172.621094 44.226562 L 172.621094 45.359375 C 172.285156 45.183594 171.933594 45.054688 171.570312 44.96875 C 171.203125 44.882812 170.828125 44.835938 170.433594 44.835938 C 169.839844 44.835938 169.394531 44.929688 169.097656 45.109375 C 168.800781 45.292969 168.652344 45.566406 168.652344 45.929688 C 168.652344 46.210938 168.757812 46.425781 168.972656 46.585938 C 169.183594 46.742188 169.609375 46.894531 170.253906 47.039062 L 170.664062 47.128906 C 171.515625 47.3125 172.117188 47.566406 172.476562 47.898438 C 172.835938 48.230469 173.015625 48.695312 173.015625 49.289062 C 173.015625 49.96875 172.746094 50.503906 172.210938 50.898438 C 171.675781 51.292969 170.9375 51.492188 170 51.492188 C 169.609375 51.492188 169.203125 51.453125 168.777344 51.378906 C 168.355469 51.300781 167.910156 51.1875 167.441406 51.035156 L 167.441406 49.796875 C 167.882812 50.027344 168.320312 50.203125 168.75 50.316406 C 169.179688 50.429688 169.605469 50.488281 170.027344 50.488281 C 170.589844 50.488281 171.023438 50.390625 171.328125 50.199219 C 171.632812 50.003906 171.785156 49.734375 171.785156 49.382812 C 171.785156 49.054688 171.671875 48.808594 171.453125 48.632812 C 171.234375 48.460938 170.753906 48.292969 170.011719 48.132812 L 169.597656 48.035156 C 168.855469 47.878906 168.316406 47.636719 167.988281 47.316406 C 167.660156 46.992188 167.492188 46.546875 167.492188 45.984375 C 167.492188 45.296875 167.738281 44.769531 168.222656 44.394531 C 168.710938 44.023438 169.398438 43.835938 170.292969 43.835938 C 170.734375 43.835938 171.152344 43.867188 171.542969 43.933594 C 171.933594 43.996094 172.292969 44.09375 172.621094 44.226562 Z M 172.621094 44.226562 "/>
<path style=" stroke:none;fill-rule:nonzero;fill:rgb(0%,0%,0%);fill-opacity:1;" d="M 176.105469 41.941406 L 176.105469 44.011719 L 178.574219 44.011719 L 178.574219 44.941406 L 176.105469 44.941406 L 176.105469 48.898438 C 176.105469 49.496094 176.1875 49.875 176.351562 50.046875 C 176.511719 50.214844 176.84375 50.300781 177.34375 50.300781 L 178.574219 50.300781 L 178.574219 51.300781 L 177.34375 51.300781 C 176.417969 51.300781 175.78125 51.128906 175.429688 50.785156 C 175.078125 50.441406 174.902344 49.8125 174.902344 48.898438 L 174.902344 44.941406 L 174.023438 44.941406 L 174.023438 44.011719 L 174.902344 44.011719 L 174.902344 41.941406 Z M 176.105469 41.941406 "/>
<path style=" stroke:none;fill-rule:nonzero;fill:rgb(0%,0%,0%);fill-opacity:1;" d="M 184.949219 45.117188 L 184.949219 41.171875 L 186.144531 41.171875 L 186.144531 51.300781 L 184.949219 51.300781 L 184.949219 50.207031 C 184.695312 50.640625 184.378906 50.964844 183.992188 51.175781 C 183.609375 51.386719 183.148438 51.492188 182.609375 51.492188 C 181.730469 51.492188 181.011719 51.140625 180.457031 50.4375 C 179.90625 49.734375 179.628906 48.808594 179.628906 47.664062 C 179.628906 46.515625 179.90625 45.59375 180.457031 44.890625 C 181.011719 44.1875 181.730469 43.835938 182.609375 43.835938 C 183.148438 43.835938 183.609375 43.941406 183.992188 44.152344 C 184.378906 44.363281 184.695312 44.683594 184.949219 45.117188 Z M 180.867188 47.664062 C 180.867188 48.542969 181.046875 49.234375 181.410156 49.734375 C 181.773438 50.238281 182.269531 50.488281 182.902344 50.488281 C 183.535156 50.488281 184.035156 50.238281 184.398438 49.734375 C 184.765625 49.234375 184.949219 48.542969 184.949219 47.664062 C 184.949219 46.78125 184.765625 46.089844 184.398438 45.589844 C 184.035156 45.089844 183.535156 44.835938 182.902344 44.835938 C 182.269531 44.835938 181.773438 45.089844 181.410156 45.589844 C 181.046875 46.089844 180.867188 46.78125 180.867188 47.664062 Z M 180.867188 47.664062 "/>
<path style=" stroke:none;fill-rule:nonzero;fill:rgb(0%,0%,0%);fill-opacity:1;" d="M 194.152344 50.195312 L 198.742188 50.195312 L 198.742188 51.300781 L 192.570312 51.300781 L 192.570312 50.195312 C 193.070312 49.679688 193.75 48.984375 194.613281 48.117188 C 195.472656 47.246094 196.015625 46.683594 196.238281 46.429688 C 196.65625 45.960938 196.953125 45.558594 197.117188 45.230469 C 197.285156 44.902344 197.371094 44.582031 197.371094 44.265625 C 197.371094 43.746094 197.1875 43.328125 196.828125 43.003906 C 196.464844 42.675781 195.992188 42.511719 195.410156 42.511719 C 194.996094 42.511719 194.5625 42.585938 194.101562 42.726562 C 193.644531 42.871094 193.15625 43.085938 192.636719 43.378906 L 192.636719 42.050781 C 193.164062 41.835938 193.660156 41.675781 194.121094 41.570312 C 194.582031 41.460938 195.003906 41.40625 195.382812 41.40625 C 196.390625 41.40625 197.195312 41.660156 197.792969 42.164062 C 198.390625 42.664062 198.691406 43.335938 198.691406 44.179688 C 198.691406 44.578125 198.617188 44.957031 198.464844 45.316406 C 198.316406 45.671875 198.046875 46.09375 197.648438 46.582031 C 197.539062 46.707031 197.195312 47.070312 196.613281 47.671875 C 196.035156 48.273438 195.214844 49.117188 194.152344 50.195312 Z M 194.152344 50.195312 "/>
<path style="fill:none;stroke-width:1.5;stroke-linecap:butt;stroke-linejoin:round;stroke:rgb(0%,50.196081%,0%);stroke-opacity:1;stroke-dasharray:9.6,2.4,1.5,2.4;stroke-miterlimit:4;" d="M 52.78125 49.655273 L 72.782227 49.655273 " transform="matrix(1.333333,0,0,1.333333,0,0.000000000000014211)"/>
<path style=" stroke:none;fill-rule:nonzero;fill:rgb(0%,0%,0%);fill-opacity:1;" d="M 114.640625 64.980469 C 114.941406 64.441406 115.300781 64.046875 115.714844 63.789062 C 116.132812 63.535156 116.625 63.40625 117.1875 63.40625 C 117.945312 63.40625 118.535156 63.671875 118.945312 64.203125 C 119.359375 64.734375 119.566406 65.492188 119.566406 66.472656 L 119.566406 70.871094 L 118.359375 70.871094 L 118.359375 66.511719 C 118.359375 65.8125 118.234375 65.292969 117.988281 64.957031 C 117.742188 64.617188 117.363281 64.449219 116.855469 64.449219 C 116.234375 64.449219 115.746094 64.652344 115.382812 65.066406 C 115.023438 65.476562 114.84375 66.039062 114.84375 66.753906 L 114.84375 70.871094 L 113.640625 70.871094 L 113.640625 66.511719 C 113.640625 65.808594 113.515625 65.289062 113.269531 64.953125 C 113.023438 64.617188 112.640625 64.449219 112.121094 64.449219 C 111.511719 64.449219 111.023438 64.65625 110.664062 65.070312 C 110.304688 65.484375 110.121094 66.042969 110.121094 66.753906 L 110.121094 70.871094 L 108.917969 70.871094 L 108.917969 63.582031 L 110.121094 63.582031 L 110.121094 64.714844 C 110.398438 64.265625 110.722656 63.9375 111.105469 63.726562 C 111.488281 63.511719 111.941406 63.40625 112.464844 63.40625 C 112.996094 63.40625 113.449219 63.539062 113.820312 63.808594 C 114.191406 64.078125 114.464844 64.46875 114.640625 64.980469 Z M 114.640625 64.980469 "/>
<path style=" stroke:none;fill-rule:nonzero;fill:rgb(0%,0%,0%);fill-opacity:1;" d="M 128.191406 66.925781 L 128.191406 67.511719 L 122.683594 67.511719 C 122.734375 68.335938 122.984375 68.964844 123.429688 69.398438 C 123.871094 69.828125 124.492188 70.046875 125.285156 70.046875 C 125.746094 70.046875 126.191406 69.988281 126.625 69.878906 C 127.054688 69.765625 127.484375 69.59375 127.910156 69.367188 L 127.910156 70.503906 C 127.480469 70.683594 127.039062 70.824219 126.589844 70.917969 C 126.136719 71.015625 125.679688 71.0625 125.214844 71.0625 C 124.050781 71.0625 123.128906 70.722656 122.449219 70.046875 C 121.773438 69.371094 121.433594 68.453125 121.433594 67.296875 C 121.433594 66.105469 121.753906 65.160156 122.398438 64.457031 C 123.042969 63.757812 123.914062 63.40625 125.007812 63.40625 C 125.988281 63.40625 126.761719 63.722656 127.335938 64.355469 C 127.90625 64.984375 128.191406 65.84375 128.191406 66.925781 Z M 126.992188 66.574219 C 126.984375 65.921875 126.800781 65.398438 126.441406 65.007812 C 126.085938 64.617188 125.609375 64.421875 125.019531 64.421875 C 124.351562 64.421875 123.816406 64.609375 123.414062 64.988281 C 123.015625 65.367188 122.78125 65.898438 122.722656 66.582031 Z M 126.992188 66.574219 "/>
<path style=" stroke:none;fill-rule:nonzero;fill:rgb(0%,0%,0%);fill-opacity:1;" d="M 133.46875 67.207031 C 132.503906 67.207031 131.832031 67.320312 131.457031 67.539062 C 131.085938 67.761719 130.898438 68.136719 130.898438 68.671875 C 130.898438 69.097656 131.039062 69.433594 131.320312 69.683594 C 131.597656 69.933594 131.980469 70.058594 132.460938 70.058594 C 133.125 70.058594 133.660156 69.824219 134.058594 69.351562 C 134.460938 68.882812 134.664062 68.253906 134.664062 67.476562 L 134.664062 67.207031 Z M 135.859375 66.710938 L 135.859375 70.871094 L 134.664062 70.871094 L 134.664062 69.765625 C 134.386719 70.207031 134.046875 70.535156 133.640625 70.746094 C 133.230469 70.957031 132.730469 71.0625 132.140625 71.0625 C 131.394531 71.0625 130.800781 70.851562 130.359375 70.433594 C 129.917969 70.015625 129.699219 69.453125 129.699219 68.75 C 129.699219 67.929688 129.972656 67.3125 130.523438 66.894531 C 131.074219 66.480469 131.890625 66.269531 132.980469 66.269531 L 134.664062 66.269531 L 134.664062 66.152344 C 134.664062 65.601562 134.480469 65.175781 134.117188 64.871094 C 133.757812 64.570312 133.246094 64.421875 132.589844 64.421875 C 132.175781 64.421875 131.769531 64.472656 131.371094 64.570312 C 130.976562 64.671875 130.597656 64.820312 130.234375 65.019531 L 130.234375 63.914062 C 130.671875 63.742188 131.097656 63.617188 131.511719 63.535156 C 131.921875 63.449219 132.324219 63.40625 132.714844 63.40625 C 133.769531 63.40625 134.558594 63.679688 135.078125 64.226562 C 135.601562 64.773438 135.859375 65.601562 135.859375 66.710938 Z M 135.859375 66.710938 "/>
<path style=" stroke:none;fill-rule:nonzero;fill:rgb(0%,0%,0%);fill-opacity:1;" d="M 144.390625 66.472656 L 144.390625 70.871094 L 143.191406 70.871094 L 143.191406 66.511719 C 143.191406 65.820312 143.054688 65.304688 142.785156 64.960938 C 142.515625 64.621094 142.113281 64.449219 141.578125 64.449219 C 140.929688 64.449219 140.417969 64.652344 140.046875 65.066406 C 139.671875 65.476562 139.484375 66.039062 139.484375 66.753906 L 139.484375 70.871094 L 138.28125 70.871094 L 138.28125 63.582031 L 139.484375 63.582031 L 139.484375 64.714844 C 139.773438 64.277344 140.109375 63.949219 140.496094 63.730469 C 140.886719 63.515625 141.335938 63.40625 141.84375 63.40625 C 142.679688 63.40625 143.3125 63.664062 143.742188 64.183594 C 144.171875 64.703125 144.390625 65.464844 144.390625 66.472656 Z M 144.390625 66.472656 "/>
<path style=" stroke:none;fill-rule:nonzero;fill:rgb(0%,0%,0%);fill-opacity:1;" d="M 155.167969 65.632812 C 155.796875 65.765625 156.289062 66.046875 156.640625 66.472656 C 156.996094 66.898438 157.171875 67.421875 157.171875 68.046875 C 157.171875 69.007812 156.84375 69.75 156.183594 70.273438 C 155.523438 70.800781 154.585938 71.0625 153.371094 71.0625 C 152.964844 71.0625 152.546875 71.023438 152.113281 70.941406 C 151.679688 70.859375 151.234375 70.742188 150.777344 70.578125 L 150.777344 69.308594 C 151.140625 69.523438 151.539062 69.683594 151.972656 69.792969 C 152.40625 69.898438 152.859375 69.953125 153.335938 69.953125 C 154.15625 69.953125 154.785156 69.792969 155.21875 69.464844 C 155.648438 69.140625 155.867188 68.667969 155.867188 68.046875 C 155.867188 67.472656 155.664062 67.027344 155.261719 66.703125 C 154.863281 66.378906 154.304688 66.21875 153.589844 66.21875 L 152.453125 66.21875 L 152.453125 65.136719 L 153.640625 65.136719 C 154.285156 65.136719 154.78125 65.007812 155.125 64.75 C 155.464844 64.492188 155.636719 64.121094 155.636719 63.632812 C 155.636719 63.132812 155.460938 62.753906 155.105469 62.484375 C 154.753906 62.21875 154.246094 62.082031 153.589844 62.082031 C 153.226562 62.082031 152.839844 62.121094 152.429688 62.203125 C 152.015625 62.28125 151.5625 62.402344 151.066406 62.566406 L 151.066406 61.394531 C 151.566406 61.253906 152.035156 61.152344 152.472656 61.082031 C 152.90625 61.011719 153.320312 60.976562 153.703125 60.976562 C 154.703125 60.976562 155.492188 61.203125 156.074219 61.660156 C 156.65625 62.109375 156.945312 62.722656 156.945312 63.496094 C 156.945312 64.035156 156.792969 64.488281 156.484375 64.859375 C 156.175781 65.230469 155.738281 65.488281 155.167969 65.632812 Z M 155.167969 65.632812 "/>
<path style=" stroke:none;fill-rule:nonzero;fill:rgb(0%,0%,0%);fill-opacity:1;" d="M 159.804688 69.21875 L 161.175781 69.21875 L 161.175781 70.339844 L 160.109375 72.421875 L 159.269531 72.421875 L 159.804688 70.339844 Z M 159.804688 69.21875 "/>
<path style=" stroke:none;fill-rule:nonzero;fill:rgb(0%,0%,0%);fill-opacity:1;" d="M 172.621094 63.796875 L 172.621094 64.929688 C 172.285156 64.753906 171.933594 64.625 171.570312 64.539062 C 171.203125 64.453125 170.828125 64.410156 170.433594 64.410156 C 169.839844 64.410156 169.394531 64.5 169.097656 64.679688 C 168.800781 64.863281 168.652344 65.136719 168.652344 65.503906 C 168.652344 65.78125 168.757812 65.996094 168.972656 66.15625 C 169.183594 66.316406 169.609375 66.464844 170.253906 66.609375 L 170.664062 66.699219 C 171.515625 66.882812 172.117188 67.140625 172.476562 67.472656 C 172.835938 67.804688 173.015625 68.265625 173.015625 68.859375 C 173.015625 69.539062 172.746094 70.074219 172.210938 70.472656 C 171.675781 70.867188 170.9375 71.0625 170 71.0625 C 169.609375 71.0625 169.203125 71.023438 168.777344 70.949219 C 168.355469 70.871094 167.910156 70.757812 167.441406 70.605469 L 167.441406 69.367188 C 167.882812 69.597656 168.320312 69.773438 168.75 69.886719 C 169.179688 70 169.605469 70.058594 170.027344 70.058594 C 170.589844 70.058594 171.023438 69.960938 171.328125 69.769531 C 171.632812 69.574219 171.785156 69.304688 171.785156 68.953125 C 171.785156 68.628906 171.671875 68.378906 171.453125 68.203125 C 171.234375 68.03125 170.753906 67.863281 170.011719 67.703125 L 169.597656 67.605469 C 168.855469 67.449219 168.316406 67.210938 167.988281 66.886719 C 167.660156 66.5625 167.492188 66.117188 167.492188 65.554688 C 167.492188 64.867188 167.738281 64.339844 168.222656 63.964844 C 168.710938 63.59375 169.398438 63.40625 170.292969 63.40625 C 170.734375 63.40625 171.152344 63.4375 171.542969 63.503906 C 171.933594 63.566406 172.292969 63.664062 172.621094 63.796875 Z M 172.621094 63.796875 "/>
<path style=" stroke:none;fill-rule:nonzero;fill:rgb(0%,0%,0%);fill-opacity:1;" d="M 176.105469 61.511719 L 176.105469 63.582031 L 178.574219 63.582031 L 178.574219 64.511719 L 176.105469 64.511719 L 176.105469 68.472656 C 176.105469 69.066406 176.1875 69.445312 176.351562 69.617188 C 176.511719 69.785156 176.84375 69.871094 177.34375 69.871094 L 178.574219 69.871094 L 178.574219 70.871094 L 177.34375 70.871094 C 176.417969 70.871094 175.78125 70.699219 175.429688 70.355469 C 175.078125 70.011719 174.902344 69.382812 174.902344 68.472656 L 174.902344 64.511719 L 174.023438 64.511719 L 174.023438 63.582031 L 174.902344 63.582031 L 174.902344 61.511719 Z M 176.105469 61.511719 "/>
<path style=" stroke:none;fill-rule:nonzero;fill:rgb(0%,0%,0%);fill-opacity:1;" d="M 184.949219 64.6875 L 184.949219 60.742188 L 186.144531 60.742188 L 186.144531 70.871094 L 184.949219 70.871094 L 184.949219 69.777344 C 184.695312 70.210938 184.378906 70.535156 183.992188 70.746094 C 183.609375 70.957031 183.148438 71.0625 182.609375 71.0625 C 181.730469 71.0625 181.011719 70.710938 180.457031 70.007812 C 179.90625 69.304688 179.628906 68.378906 179.628906 67.234375 C 179.628906 66.085938 179.90625 65.164062 180.457031 64.460938 C 181.011719 63.757812 181.730469 63.40625 182.609375 63.40625 C 183.148438 63.40625 183.609375 63.511719 183.992188 63.722656 C 184.378906 63.933594 184.695312 64.253906 184.949219 64.6875 Z M 180.867188 67.234375 C 180.867188 68.113281 181.046875 68.804688 181.410156 69.304688 C 181.773438 69.808594 182.269531 70.058594 182.902344 70.058594 C 183.535156 70.058594 184.035156 69.808594 184.398438 69.304688 C 184.765625 68.804688 184.949219 68.113281 184.949219 67.234375 C 184.949219 66.351562 184.765625 65.660156 184.398438 65.160156 C 184.035156 64.660156 183.535156 64.410156 182.902344 64.410156 C 182.269531 64.410156 181.773438 64.660156 181.410156 65.160156 C 181.046875 65.660156 180.867188 66.351562 180.867188 67.234375 Z M 180.867188 67.234375 "/>
<path style=" stroke:none;fill-rule:nonzero;fill:rgb(0%,0%,0%);fill-opacity:1;" d="M 193.25 69.765625 L 195.398438 69.765625 L 195.398438 62.351562 L 193.058594 62.820312 L 193.058594 61.621094 L 195.382812 61.152344 L 196.699219 61.152344 L 196.699219 69.765625 L 198.847656 69.765625 L 198.847656 70.871094 L 193.25 70.871094 Z M 193.25 69.765625 "/>
</g>
</svg>
